<svg xmlns="http://www.w3.org/2000/svg" width="116.188" height="49.205" viewBox="0 0 116.188 49.205"><g transform="translate(-143 -823.001)"><path d="M138.118,429.664a2.655,2.655,0,0,1-1.061.264,2.954,2.954,0,0,1,0-5.907,2.661,2.661,0,0,1,1.061.264l.074.626a2.054,2.054,0,0,0-1.176-.379,2.449,2.449,0,0,0,0,4.887,1.954,1.954,0,0,0,1.176-.379Z" transform="translate(8.823 440.895)" fill="#ffffff"/><path d="M151,430.48a2.115,2.115,0,1,1-2.114-2.163A2.161,2.161,0,0,1,151,430.48Zm-3.751,0a1.638,1.638,0,1,0,1.637-1.685A1.678,1.678,0,0,0,147.244,430.48Z" transform="translate(0.766 438.146)" fill="#ffffff"/><path d="M160.428,432.612v-4.2l.477-.1v.708h.017a1.347,1.347,0,0,1,1.1-.708,1.224,1.224,0,0,1,1.209.683,1.453,1.453,0,0,1,1.176-.683c.757,0,1.382.362,1.382,1.218v3.011l-.477.067v-2.978a.843.843,0,0,0-.872-.889c-.741,0-1.095.494-1.095,1.243v2.558l-.477.067v-2.978a.843.843,0,0,0-.872-.889c-.741,0-1.095.494-1.095,1.243v2.558Z" transform="translate(-7.976 438.146)" fill="#ffffff"/><path d="M178.205,432.612v-4.2l.477-.1v.708h.016a1.347,1.347,0,0,1,1.1-.708,1.224,1.224,0,0,1,1.209.683,1.452,1.452,0,0,1,1.177-.683c.757,0,1.382.362,1.382,1.218v3.011l-.477.067v-2.978a.843.843,0,0,0-.872-.889c-.741,0-1.094.494-1.094,1.243v2.558l-.477.067v-2.978a.843.843,0,0,0-.872-.889c-.74,0-1.094.494-1.094,1.243v2.558Z" transform="translate(-19.352 438.146)" fill="#ffffff"/><path d="M196.251,428.317v2.74c0,.74.3,1.159,1,1.159.773,0,1.267-.279,1.267-1.941v-1.859l.477-.1v4.229l-.477.067v-.683h-.017a1.406,1.406,0,0,1-1.291.715c-1.045,0-1.44-.592-1.44-1.53v-2.7Z" transform="translate(-30.595 438.146)" fill="#ffffff"/><path d="M207.2,432.612v-4.2l.477-.1V429h.017a1.452,1.452,0,0,1,1.193-.683c.8,0,1.539.313,1.539,1.456v2.772l-.476.067v-2.945c0-.6-.387-.922-1.046-.922a1.2,1.2,0,0,0-1.226,1.127v2.674Z" transform="translate(-37.905 438.146)" fill="#ffffff"/><path d="M218.336,428.564a3.176,3.176,0,0,1,1.2-.247c.641,0,1.292.337,1.292,1.045v3.184l-.477.1v-.518h-.016a1.1,1.1,0,0,1-1.012.518,1.5,1.5,0,1,1-.058-3,1.731,1.731,0,0,1,1.086.477v-.692c0-.345-.419-.632-.971-.632a4.071,4.071,0,0,0-1.2.328Zm1.02,3.6a1.025,1.025,0,0,0-.017-2.049,1.029,1.029,0,1,0,.017,2.049Z" transform="translate(-44.659 438.146)" fill="#ffffff"/><path d="M229.241,428.317v2.74c0,.74.3,1.159,1,1.159.773,0,1.267-.279,1.267-1.941v-1.859l.477-.1v4.229l-.477.067v-.683H231.5a1.407,1.407,0,0,1-1.291.715c-1.045,0-1.44-.592-1.44-1.53v-2.7Z" transform="translate(-51.707 438.146)" fill="#ffffff"/><path d="M239.62,425.314l.477-.263v1.275h1.119v.476H240.1v2.551c0,.5.214.691.741.691a3.019,3.019,0,0,0,.386-.017v.444a2.332,2.332,0,0,1-.428.05,1.07,1.07,0,0,1-1.176-1.176V426.8h-.552l.116-.476h.436Z" transform="translate(-58.301 440.236)" fill="#ffffff"/><path d="M246.473,428.412a1.685,1.685,0,0,0,1.464.963,2.491,2.491,0,0,0,1.563-.683v.576a2.358,2.358,0,0,1-1.53.584,2.1,2.1,0,0,1-2.139-2.213,2.059,2.059,0,0,1,2.155-2.115,1.9,1.9,0,0,1,1.629.963Zm2.394-2.048a1.193,1.193,0,0,0-.881-.361,1.621,1.621,0,0,0-1.678,1.644,1.527,1.527,0,0,0,.033.337Zm-1.514-1.267.913-1.144h.634l-1.119,1.144Z" transform="translate(-62.629 440.939)" fill="#ffffff"/><path d="M264.129,429.239h.016a1.413,1.413,0,0,1,1.53-.922l-.206.485a1.6,1.6,0,0,0-.189-.007c-.518,0-1.151.641-1.151,1.678v2.072l-.477.1v-4.228l.477-.1Z" transform="translate(-74.033 438.146)" fill="#ffffff"/><path d="M269.961,428.412a1.683,1.683,0,0,0,1.464.963,2.494,2.494,0,0,0,1.563-.683v.576a2.358,2.358,0,0,1-1.531.584,2.1,2.1,0,0,1-2.138-2.213,2.059,2.059,0,0,1,2.155-2.115,1.9,1.9,0,0,1,1.629.963Zm2.394-2.048a1.193,1.193,0,0,0-.88-.361,1.622,1.622,0,0,0-1.679,1.644,1.594,1.594,0,0,0,.033.337Zm-1.514-1.267.913-1.144h.633l-1.118,1.144Z" transform="translate(-77.66 440.939)" fill="#ffffff"/><path d="M280.624,432.536a1.961,1.961,0,0,0,1.505.8c.666,0,1.374-.42,1.374-1.037a1.286,1.286,0,0,0-1.333-1.193,2.9,2.9,0,0,0-1.078.238l.172-.542a1.391,1.391,0,0,1-.8-1.168,1.581,1.581,0,0,1,1.719-1.563c.164,0,.337.017.5.017a6.754,6.754,0,0,0,1.357-.157l-.14.486a1.1,1.1,0,0,1-.362.058,1.032,1.032,0,0,1-.222-.024l-.017.016a1.459,1.459,0,0,1,.625,1.135,1.389,1.389,0,0,1-.9,1.267,1.468,1.468,0,0,1,.946,1.366,1.724,1.724,0,0,1-1.892,1.58,2.338,2.338,0,0,1-1.826-1Zm.321-2.929a1.133,1.133,0,0,0,1.242,1.053,1.086,1.086,0,1,0-1.242-1.053Z" transform="translate(-84.663 438.395)" fill="#ffffff"/><path d="M293.769,423.948l-.378.428-.378-.428.378-.428Zm-.575,5.627v-4.228l.476-.1v4.229Z" transform="translate(-92.822 441.216)" fill="#ffffff"/><path d="M301.42,430.48a2.114,2.114,0,1,1-2.115-2.163A2.161,2.161,0,0,1,301.42,430.48Zm-3.751,0a1.638,1.638,0,1,0,1.636-1.685A1.678,1.678,0,0,0,297.67,430.48Z" transform="translate(-95.498 438.146)" fill="#ffffff"/><path d="M310.647,432.612v-4.2l.477-.1V429h.017a1.451,1.451,0,0,1,1.193-.683c.8,0,1.537.313,1.537,1.456v2.772l-.476.067v-2.945c0-.6-.386-.922-1.045-.922a1.2,1.2,0,0,0-1.226,1.127v2.674Z" transform="translate(-104.108 438.146)" fill="#ffffff"/><path d="M321.787,428.564a3.172,3.172,0,0,1,1.2-.247c.642,0,1.291.337,1.291,1.045v3.184l-.477.1v-.518h-.017a1.1,1.1,0,0,1-1.011.518,1.5,1.5,0,1,1-.058-3,1.735,1.735,0,0,1,1.086.477v-.692c0-.345-.419-.632-.971-.632a4.068,4.068,0,0,0-1.2.328Zm1.019,3.6a1.025,1.025,0,0,0-.016-2.049,1.029,1.029,0,1,0,.016,2.049Z" transform="translate(-110.862 438.146)" fill="#ffffff"/><path d="M333.33,429.476l-.476.1v-5.956l.476-.1Z" transform="translate(-118.319 441.216)" fill="#ffffff"/><path d="M337.22,431.205a1.681,1.681,0,0,0,1.463.963,2.49,2.49,0,0,0,1.563-.683v.576a2.359,2.359,0,0,1-1.53.584,2.1,2.1,0,0,1-2.139-2.213,2.06,2.06,0,0,1,2.156-2.115,1.9,1.9,0,0,1,1.628.963Zm2.392-2.048a1.19,1.19,0,0,0-.879-.361,1.622,1.622,0,0,0-1.679,1.644,1.573,1.573,0,0,0,.033.337Z" transform="translate(-120.701 438.146)" fill="#ffffff"/><path d="M357.735,423.618l.476-.1v5.956l-.476.1v-.79h-.018a2.138,2.138,0,0,1-1.62.79,2.164,2.164,0,0,1-.017-4.328,2.189,2.189,0,0,1,1.637.814h.018Zm-1.68,2.107a1.666,1.666,0,0,0-1.636,1.668,1.616,1.616,0,0,0,1.653,1.7,1.688,1.688,0,0,0,1.663-1.678A1.62,1.62,0,0,0,356.055,425.726Z" transform="translate(-131.814 441.216)" fill="#ffffff"/><path d="M368.313,431.205a1.684,1.684,0,0,0,1.465.963,2.5,2.5,0,0,0,1.563-.683v.576a2.36,2.36,0,0,1-1.531.584,2.1,2.1,0,0,1-2.139-2.213,2.059,2.059,0,0,1,2.156-2.115,1.9,1.9,0,0,1,1.629.963Zm2.394-2.048a1.191,1.191,0,0,0-.88-.361,1.622,1.622,0,0,0-1.679,1.644,1.528,1.528,0,0,0,.034.337Z" transform="translate(-140.6 438.146)" fill="#ffffff"/><path d="M386.634,429.476l-.477.1v-5.956l.477-.1Z" transform="translate(-152.43 441.216)" fill="#ffffff"/><path d="M390.3,428.564a3.18,3.18,0,0,1,1.2-.247c.643,0,1.292.337,1.292,1.045v3.184l-.477.1v-.518H392.3a1.1,1.1,0,0,1-1.012.518,1.5,1.5,0,1,1-.058-3,1.731,1.731,0,0,1,1.086.477v-.692c0-.345-.419-.632-.971-.632a4.068,4.068,0,0,0-1.2.328Zm1.02,3.6a1.025,1.025,0,0,0-.016-2.049,1.029,1.029,0,1,0,.016,2.049Z" transform="translate(-154.709 438.146)" fill="#ffffff"/><path d="M408.2,424.388c.964,0,1.6.452,1.6,1.48a1.283,1.283,0,0,1-.739,1.243,1.4,1.4,0,0,1,.9,1.39c0,.979-.575,1.53-1.776,1.53h-1.415v-5.643Zm-.921,2.525h.774c.822,0,1.233-.394,1.233-1.036a.943.943,0,0,0-1.02-.98h-.987Zm0,2.609h.865c1.012,0,1.258-.477,1.258-1.02a1.011,1.011,0,0,0-1.094-1.078h-1.029Z" transform="translate(-165.618 440.66)" fill="#ffffff"/><path d="M418.32,429.239h.017a1.411,1.411,0,0,1,1.529-.922l-.2.485a1.612,1.612,0,0,0-.19-.007c-.517,0-1.151.641-1.151,1.678v2.072l-.478.1v-4.228l.478-.1Z" transform="translate(-172.706 438.146)" fill="#ffffff"/><path d="M427.692,430.48a2.115,2.115,0,1,1-2.114-2.163A2.161,2.161,0,0,1,427.692,430.48Zm-3.751,0a1.637,1.637,0,1,0,1.637-1.685A1.678,1.678,0,0,0,423.941,430.48Z" transform="translate(-176.304 438.146)" fill="#ffffff"/><path d="M435.139,428.416l.468-.1,1.654,3.011,1.448-3.011.477.1-2.758,5.644-.46-.1,1.021-2.131Z" transform="translate(-183.776 438.146)" fill="#ffffff"/><path d="M447,431.205a1.683,1.683,0,0,0,1.465.963,2.493,2.493,0,0,0,1.562-.683v.576a2.357,2.357,0,0,1-1.531.584,2.1,2.1,0,0,1-2.138-2.213,2.059,2.059,0,0,1,2.155-2.115,1.9,1.9,0,0,1,1.629.963Zm2.394-2.048a1.193,1.193,0,0,0-.881-.361,1.622,1.622,0,0,0-1.678,1.644,1.485,1.485,0,0,0,.033.337Z" transform="translate(-190.954 438.146)" fill="#ffffff"/><path d="M231.622,373.108a8.721,8.721,0,0,1-3.725.865c-7.05,0-11.739-5.287-11.739-11.937,0-6.583,4.789-11.937,11.606-11.937a8.242,8.242,0,0,1,3.692.831l.732,5.288a7.2,7.2,0,0,0-4.622-1.63c-4.024,0-6.818,3.59-6.818,7.448a7.185,7.185,0,0,0,7.017,7.447,7.1,7.1,0,0,0,4.456-1.895Z" transform="translate(-43.64 488.201)" fill="#ffffff"/><path d="M276.06,366.537a8.986,8.986,0,1,1-9.378,8.978A9.222,9.222,0,0,1,276.06,366.537Zm0,14.1a5.127,5.127,0,1,0-5.388-5.119A5.289,5.289,0,0,0,276.06,380.635Z" transform="translate(-75.973 477.682)" fill="#ffffff"/><path d="M329.044,369.729h.067c1.464-2.626,3.359-3.159,6.284-3.192l-1.462,4.489c-3.226,0-4.656,1.895-4.656,4.821v8.114l-4.224.264V367.069l3.991-.4Z" transform="translate(-113.327 477.682)" fill="#ffffff"/><path d="M370.054,382.264a12.578,12.578,0,0,1-7.083,2.228,8.986,8.986,0,1,1,0-17.955,8.967,8.967,0,0,1,8.048,5.22l-11.573,7.182a3.374,3.374,0,0,0,3.293,1.7,9.567,9.567,0,0,0,5.52-1.994Zm-4.356-11.1a4.005,4.005,0,0,0-2.96-1.1,5.155,5.155,0,0,0-5.022,4.755,6.619,6.619,0,0,0,.067,1.13Z" transform="translate(-131.59 477.682)" fill="#ffffff"/><path d="M411.573,357.978a6.4,6.4,0,0,1,4.888-1.961A8.812,8.812,0,0,1,425.108,365a9.141,9.141,0,0,1-9.311,8.977c-4.457,0-8.448-3.756-8.448-9.244v-14.1l4.225-.533Zm0,7.018a5.053,5.053,0,0,0,4.989,5.119c2.394,0,4.555-2.361,4.555-5.119s-2.162-5.121-4.555-5.121A5.053,5.053,0,0,0,411.573,365Z" transform="translate(-165.991 488.201)" fill="#ffffff"/><path d="M187.526,312.256a4.65,4.65,0,1,1-4.65-4.65A4.651,4.651,0,0,1,187.526,312.256Z" transform="translate(-19.366 515.394)" fill="#ffd000"/><path d="M134.648,357.891l.018-28.991s8.345-.836,15.086,1.978,7.381,5.334,7.15,7.79-1.406,4.211-6.164,6.282-8.894,4.442-11.973,7.619A23.505,23.505,0,0,0,134.648,357.891Z" transform="translate(8.522 501.841)" fill="#86b110"/><path d="M138.7,370.24h32.125s-3.939-1.256-6.3-6.808c-2.255-4.872.477-7.965.46-12.985a7.928,7.928,0,0,0-3.636-6.971,11.248,11.248,0,0,1,1.256,5.277c-.231,2.457-1.848,4.674-6.606,6.745s-8.894,4.442-11.973,7.619A40.375,40.375,0,0,0,138.7,370.24Z" transform="translate(5.931 492.44)" fill="#0090df"/></g></svg>